<?xml version="1.0" encoding="UTF-8" standalone="no"?>
<!-- Created with Inkscape (http://www.inkscape.org/) -->

<svg
   width="16.0px"
   height="16.0px"
   viewBox="0 0 16.0 16.0"
   version="1.1"
   id="SVGRoot"
   xmlns="http://www.w3.org/2000/svg"
   xmlns:svg="http://www.w3.org/2000/svg">
  <defs
     id="defs14651" />
  <g
     id="layer1">
    <path
       style="fill:none;fill-opacity:1;stroke:#73efe8;stroke-width:1.51181;stroke-opacity:1;paint-order:markers fill stroke"
       id="path16388"
       d="M 11.827664,4.7528109 A 9,9 0 0 1 4.768769,11.824481" />
    <circle
       style="fill:#73efe8;stroke-width:1.51181;paint-order:markers fill stroke"
       id="path15161"
       cx="5"
       cy="12"
       r="2" />
    <circle
       style="fill:#73efe8;stroke-width:1.51181;paint-order:markers fill stroke"
       id="path15165"
       cx="12"
       cy="5"
       r="2" />
    <path
       style="fill:none;stroke-width:1.51181;paint-order:markers fill stroke;stroke:#73efe8;stroke-opacity:1"
       d="m 3,3 9,2"
       id="path15167" />
    <path
       style="fill:none;stroke:#73efe8;stroke-width:1.51181;stroke-opacity:1;paint-order:markers fill stroke"
       d="M 5,12 3,3"
       id="path16327" />
    <path
       style="fill:none;stroke:#f1641f;stroke-width:1.51181;stroke-opacity:1;paint-order:markers fill stroke"
       d="M 10,10 3,3"
       id="path16329" />
    <circle
       style="fill:#f1641f;stroke-width:1.51181;paint-order:markers fill stroke;fill-opacity:1"
       id="path15159"
       cx="10"
       cy="10"
       r="2" />
    <circle
       style="fill:#f1641f;stroke-width:1.51181;paint-order:markers fill stroke;fill-opacity:1"
       id="path15153"
       cx="3"
       cy="3"
       r="2" />
    <path
       id="path22450"
       style="color:#000000;fill:#73efe8;-inkscape-stroke:none;paint-order:markers fill stroke"
       d="M 14.978516 7.4101562 A 8 8 0 0 1 7.4101562 14.978516 C 8.3320983 15.28413 9.3231898 15.367359 10.285156 15.207031 C 11.511183 15.002693 12.656267 14.414046 13.535156 13.535156 C 14.414046 12.656267 15.002693 11.511183 15.207031 10.285156 C 15.367359 9.3231898 15.284129 8.3320983 14.978516 7.4101562 z " />
  </g>
</svg>
