<?xml version="1.0" encoding="UTF-8" standalone="no"?>
<!-- Created with Inkscape (http://www.inkscape.org/) -->

<svg
   width="16.0px"
   height="16.0px"
   viewBox="0 0 16.0 16.0"
   version="1.1"
   id="SVGRoot"
   xmlns="http://www.w3.org/2000/svg"
   xmlns:svg="http://www.w3.org/2000/svg">
  <defs
     id="defs132" />
  <g
     id="layer1">
    <g
       id="layer2">
      <path
         id="path2450"
         style="fill:#73efe8;fill-opacity:1;stroke-width:1.214;paint-order:stroke fill markers"
         d="M 8 1 A 7 7 0 0 0 1 8 A 7 7 0 0 0 8 15 A 7 7 0 0 0 15 8 A 7 7 0 0 0 8 1 z M 8 3 A 5 5 0 0 1 13 8 A 5 5 0 0 1 8 13 A 5 5 0 0 1 3 8 A 5 5 0 0 1 8 3 z " />
    </g>
    <circle
       style="fill:#f1641f;fill-opacity:1;stroke-width:1.214;paint-order:stroke fill markers"
       id="path434"
       cx="8"
       cy="8"
       r="3" />
  </g>
</svg>
